#!OML:ASF X:\für Bonn\!DataBase\2005_08_12_Daniel\c3d\Daniel.ASF
:FULLY-SPECIFIED
:DEGREES
375
root 15.0395 1.27776 1.10141 -719.092 -82.8312 -115.185
lowerback 28.5364 -3.75594 4.5563
upperback 7.4361 -4.32684 -0.733401
thorax -7.71648 -2.46367 -1.90253
lowerneck 0.460959 1.99111 -10.5484
upperneck 3.46719 2.57257 3.98539
head 0.829879 1.18414 3.15517
rclavicle -4.6118e-014 1.30154e-013
rhumerus -46.962 -26.844 -60.3573
rradius 9.52409
rwrist 74.0739
rhand -16.0407 -343.35
rfingers 7.12502
rthumb 10.1609 -373.084
lclavicle -4.6118e-014 1.30154e-013
lhumerus -403.417 17.1109 -293.489
lradius 17.9171
lwrist -57.7822
lhand -6.80334 354.311
lfingers 7.12502
lthumb 19.06 383.397
rfemur 181.612 -175.747 192.733
rtibia 55.7294
rfoot 45.7387 -9.1542
rtoes 13.3044
lfemur 2.11219 -9.94654 -13.6908
ltibia 46.7147
lfoot 29.2054 9.40406
ltoes 7.2919
376
root 15.0402 1.28003 1.10034 -719.169 -82.8067 -114.828
lowerback 28.2833 -3.743 4.50116
upperback 7.25819 -4.31677 -0.73904
thorax -7.7922 -2.4512 -1.88764
lowerneck 0.194786 1.97446 -10.4669
upperneck 3.50865 2.58197 3.89977
head 0.891534 1.19 3.11485
rclavicle 2.66371e-014 8.48562e-015
rhumerus -47.2883 -26.5521 -60.2549
rradius 9.65394
rwrist 74.5207
rhand -16.059 -343.198
rfingers 7.12502
rthumb 10.1433 -372.934
lclavicle 2.66371e-014 8.48562e-015
lhumerus -403.546 16.8679 -293.338
lradius 17.8876
lwrist -57.8704
lhand -6.97583 354.044
lfingers 7.12502
lthumb 18.8941 383.146
rfemur 181.923 -175.974 192.984
rtibia 54.4749
rfoot 45.43 -9.01925
rtoes 14.3933
lfemur 2.9448 -10.7161 -14.2338
ltibia 44.7992
lfoot 28.1228 9.72747
ltoes 7.64097
377
root 15.0425 1.28257 1.09761 -719.176 -82.8125 -114.529
lowerback 28.0036 -3.70821 4.45954
upperback 7.08509 -4.27591 -0.761277
thorax -7.84874 -2.42335 -1.91137
lowerneck -0.0522267 1.95484 -10.275
upperneck 3.53539 2.58554 3.75209
head 0.947159 1.19378 3.03189
rclavicle -9.97899e-014 1.69986e-013
rhumerus -47.6545 -26.3241 -60.1661
rradius 9.84015
rwrist 74.95
rhand -15.9956 -343.013
rfingers 7.12502
rthumb 10.2044 -372.746
lclavicle -9.97899e-014 1.69986e-013
lhumerus -403.621 16.4191 -293.081
lradius 17.9032
lwrist -57.7965
lhand -7.14457 353.79
lfingers 7.12502
lthumb 18.7318 382.908
rfemur 182.243 -176.287 193.276
rtibia 53.1484
rfoot 44.6804 -8.92718
rtoes 15.6893
lfemur 3.73756 -11.5567 -14.8158
ltibia 42.998
lfoot 27.1851 10.2501
ltoes 7.6444
378
root 15.0485 1.28616 1.09539 -719.209 -82.7957 -114.19
lowerback 27.7101 -3.69147 4.40487
upperback 6.90599 -4.26265 -0.774862
thorax -7.90483 -2.40908 -1.90871
lowerneck -0.338819 1.941 -10.1195
upperneck 3.60512 2.60012 3.6212
head 1.02225 1.20168 2.96326
rclavicle -1.03368e-014 5.34234e-014
rhumerus -48.0435 -26.011 -60.0571
rradius 10.1302
rwrist 75.3371
rhand -15.8508 -342.807
rfingers 7.12502
rthumb 10.3441 -372.533
lclavicle -1.03368e-014 5.34234e-014
lhumerus -403.739 16.0416 -292.842
lradius 17.9406
lwrist -57.8058
lhand -7.39112 353.509
lfingers 7.12502
lthumb 18.4946 382.65
rfemur 182.612 -176.58 193.565
rtibia 51.7219
rfoot 43.4956 -8.74361
rtoes 16.3635
lfemur 4.46408 -12.4817 -15.4313
ltibia 41.3343
lfoot 26.3787 10.8133
ltoes 7.05537
379
root 15.0557 1.28945 1.09317 -719.236 -82.7866 -113.851
lowerback 27.4265 -3.66475 4.34756
upperback 6.71142 -4.23486 -0.787286
thorax -7.98109 -2.38755 -1.90727
lowerneck -0.579341 1.92544 -9.94649
upperneck 3.66118 2.6066 3.48599
head 1.08549 1.20559 2.88924
rclavicle -9.34288e-014 1.16115e-013
rhumerus -47.812 -24.4043 -61.4856
rradius 10.4786
rwrist 73.7256
rhand -15.5478 -342.928
rfingers 7.12502
rthumb 10.6364 -372.639
lclavicle -9.34288e-014 1.16115e-013
lhumerus -403.847 15.3911 -292.42
lradius 18.0202
lwrist -57.49
lhand -7.56081 353.299
lfingers 7.12502
lthumb 18.3314 382.456
rfemur 183.029 -176.919 193.87
rtibia 50.1908
rfoot 41.8748 -8.54419
rtoes 16.1223
lfemur 5.13502 -13.4803 -16.0781
ltibia 39.8012
lfoot 25.6888 11.4277
ltoes 5.94009
380
root 15.0653 1.29307 1.09091 -719.307 -82.7867 -113.456
lowerback 27.1243 -3.63697 4.29284
upperback 6.51979 -4.20621 -0.804124
thorax -8.04431 -2.36564 -1.91349
lowerneck -0.822268 1.91301 -9.80082
upperneck 3.68489 2.61677 3.36945
head 1.13795 1.21199 2.82672
rclavicle 5.30755e-014 -5.30507e-015
rhumerus -47.6267 -22.8472 -62.867
rradius 10.8421
rwrist 72.0438
rhand -15.153 -343.12
rfingers 7.12502
rthumb 11.0172 -372.811
lclavicle 5.30755e-014 -5.30507e-015
lhumerus -403.943 14.7413 -291.98
lradius 18.1042
lwrist -57.2128
lhand -7.74058 353.181
lfingers 7.12502
lthumb 18.1584 382.353
rfemur 183.508 -177.275 194.168
rtibia 48.5353
rfoot 39.9311 -8.42664
rtoes 14.843
lfemur 5.737 -14.5017 -16.7442
ltibia 38.4103
lfoot 25.1253 11.9601
ltoes 5.00216
